<?xml version="1.0" encoding="UTF-8" standalone="no"?>
<!DOCTYPE svg PUBLIC "-//W3C//DTD SVG 1.1//EN" "http://www.w3.org/Graphics/SVG/1.1/DTD/svg11.dtd">
<svg width="100%" height="100%" viewBox="0 0 1667 146" version="1.1" xmlns="http://www.w3.org/2000/svg" xmlns:xlink="http://www.w3.org/1999/xlink" xml:space="preserve" xmlns:serif="http://www.serif.com/" style="fill-rule:evenodd;clip-rule:evenodd;stroke-linejoin:round;stroke-miterlimit:2;">
    <path id="path1" d="M15.833,135.958C8.317,135.553 1.679,134.92 1.083,134.551C0.327,134.084 0,117.75 0,80.521L0,27.161L4.25,27.46C9.353,27.82 16.47,29.677 20.269,31.64C22.591,32.84 24.016,32.869 29.106,31.817C34.603,30.682 35.473,30.741 38.337,32.444C42.499,34.917 49.861,36.285 58.5,36.19C65.706,36.11 67.45,35.814 87,31.348C95.236,29.466 102.899,28.523 114,28.027C124.987,27.536 131.684,26.719 137,25.221C145.886,22.718 159.43,21.161 182,20.048C192.611,19.525 200.002,18.679 202.709,17.676C213.677,13.615 244.596,13.376 261,17.226C267.227,18.688 274.314,19.341 287.5,19.668C297.4,19.913 309.636,20.78 314.691,21.594C322.941,22.921 324.888,22.908 333.691,21.468C340.017,20.433 345.986,20.081 350.5,20.476C358.453,21.171 376.422,19.074 390.431,15.814C397.023,14.28 403.465,13.64 414.018,13.469C425.733,13.28 430.077,12.788 436.518,10.921C443.728,8.83 446.282,8.626 462.934,8.805C476.212,8.947 484.882,9.59 493.934,11.102C505.613,13.053 507.646,13.118 522.742,12.011C539.017,10.819 541.493,10.935 554.5,13.499C558.35,14.258 566.889,15.155 573.476,15.494C584.031,16.036 587.025,16.632 598.709,20.515C613.536,25.444 627.569,27.473 639.5,26.411C644.127,25.999 649.679,26.34 655.877,27.416C669.88,29.847 699.552,28.767 714,25.302C723.787,22.954 725.722,22.817 742.5,23.293C752.4,23.573 765.396,24.595 771.38,25.564C781.129,27.143 783.986,27.198 798.88,26.089C813.626,24.992 816.458,25.041 824,26.518C828.884,27.475 841.86,28.563 854.5,29.075C866.6,29.566 882.96,30.815 890.856,31.85C904.083,33.584 906.286,33.621 918.856,32.313C932.664,30.877 943.915,31.172 950.107,33.131C953.736,34.28 983.63,36.212 998.5,36.259C1011.16,36.299 1042.28,34.341 1049.83,33.03C1053.31,32.425 1060.74,30.786 1066.33,29.387C1074.07,27.45 1079.6,26.777 1089.5,26.568C1099.57,26.355 1104.08,25.795 1109.5,24.083C1118.12,21.359 1150.45,17.004 1162.07,17.002C1168.52,17 1172.74,16.349 1179.07,14.372C1186.25,12.135 1189.88,11.674 1203.5,11.273C1219.35,10.806 1226.96,11.452 1240.5,14.413C1244.35,15.256 1254.7,16.217 1263.5,16.549C1272.3,16.881 1283.1,17.85 1287.5,18.703C1293.45,19.856 1298.06,20.068 1305.5,19.53C1311,19.132 1322.92,18.712 1332,18.597C1345.67,18.424 1350.81,17.906 1362,15.572C1373.34,13.206 1377.69,12.777 1389.24,12.887C1400.37,12.993 1404.55,12.61 1411.24,10.871C1418.77,8.914 1421.19,8.774 1438.5,9.295C1452.01,9.701 1460.68,10.496 1468.5,12.044C1478.43,14.01 1481.39,14.158 1499,13.571C1511.65,13.149 1520.26,13.299 1523.5,13.999C1526.25,14.592 1536.38,15.456 1546,15.918C1562.09,16.691 1564.41,17.049 1574.74,20.35C1586.05,23.964 1599.27,26.264 1603.06,25.275C1604.18,24.981 1606.88,25.544 1609.06,26.527C1612.27,27.976 1613.5,28.095 1615.56,27.156C1616.95,26.52 1619.31,25.992 1620.8,25.982C1622.28,25.972 1625.49,24.616 1627.92,22.97C1631.84,20.315 1632.91,20.042 1637.42,20.558C1640.21,20.878 1644.19,21.853 1646.26,22.726C1649.34,24.027 1650.71,24.104 1653.88,23.156C1658.74,21.697 1661.24,21.698 1664.45,23.161L1667,24.321L1666.97,136.5L1663.74,132.856C1661.96,130.851 1658.92,128.431 1657,127.478C1655.08,126.524 1650.9,124.452 1647.73,122.872C1644.56,121.292 1640.51,120.013 1638.73,120.029C1636.95,120.044 1629.65,121.668 1622.5,123.637C1615.35,125.605 1607.92,127.225 1606,127.236C1604.08,127.247 1590.35,127.002 1575.5,126.693C1554.07,126.246 1546.23,125.7 1537.5,124.041C1508.4,118.512 1493.09,116.785 1479,117.44C1471.58,117.785 1462.35,118.504 1458.5,119.036C1441.78,121.35 1418.46,123.063 1405.5,122.93C1359.77,122.461 1344.69,122.929 1336.5,125.07C1321.07,129.107 1311.29,130.27 1302,129.174C1296.54,128.531 1285.98,128.488 1272.5,129.055C1258.56,129.641 1249.31,129.59 1245,128.901C1241.42,128.33 1231.98,128.005 1224,128.178C1216.03,128.35 1203.42,128.1 1196,127.62C1183.57,126.817 1181.31,126.959 1167.5,129.406C1159.25,130.868 1151.1,132.283 1149.4,132.55C1147.69,132.817 1143.15,132.588 1139.3,132.043C1135.45,131.497 1123.12,131.006 1111.9,130.952C1094.31,130.867 1090.19,131.152 1082,133.027C1073.77,134.909 1070.89,135.106 1060.5,134.496C1047.22,133.717 1004.1,132.734 977,132.592C962.901,132.518 956.815,132.958 945.684,134.852C937.298,136.279 930.421,136.949 928.184,136.555C926.158,136.198 909.875,135.515 892,135.037C846.76,133.827 834.627,132.784 823.5,129.146C818.55,127.528 812.025,125.907 809,125.544C805.975,125.182 800.125,124.271 796,123.52C772.441,119.231 756.56,117.717 741.5,118.324C733.25,118.656 722.9,119.372 718.5,119.915C714.1,120.458 701.95,121.629 691.5,122.518C681.05,123.407 667.775,124.702 662,125.395C654.86,126.252 638.538,126.592 611,126.458C572.846,126.272 569.573,126.111 554.5,123.689C517.909,117.808 516.503,117.666 501.648,118.336C493.866,118.688 482.1,119.709 475.5,120.605C466.004,121.894 453.274,122.278 414.5,122.446C371.199,122.633 364.744,122.863 359,124.425C349.031,127.135 338.319,128.219 329.5,127.41C325.1,127.006 309.125,126.571 294,126.443C278.875,126.315 252.775,125.953 236,125.639C206.182,125.081 205.187,125.126 191.5,127.665C181.489,129.522 175.078,130.167 169,129.931C164.325,129.749 150.15,129.577 137.5,129.55C116.58,129.505 113.64,129.714 105,131.86C96.771,133.905 94.1,134.133 85.037,133.565C79.282,133.204 67.759,132.737 59.43,132.526C45.077,132.162 44.014,132.268 39.044,134.571C36.161,135.907 32.833,136.932 31.651,136.848C30.468,136.764 23.35,136.364 15.833,135.958L15.833,135.958Z"/>
</svg>
